<svg id="Capa_1" enable-background="new 0 0 512 512" height="512" viewBox="0 0 512 512" width="512" xmlns="http://www.w3.org/2000/svg"><g><path d="m176.278 50.544c-5.145 1.842-126.152 46.183-137.829 139.596-1.29 10.316-2.604 22.446-3.995 35.288-3.709 34.229-7.913 73.025-13.287 93.314-2.96 11.174-5.944 20.174-8.83 28.877-6.62 19.963-12.337 37.204-12.337 66.214 0 25.876 10.197 50.398 28.715 69.049 18.641 18.777 43.306 29.118 69.452 29.118 54.129 0 98.166-44.037 98.166-98.167z" fill="#c97840"/><path d="m335.722 50.544c5.145 1.842 126.152 46.182 137.829 139.595 1.29 10.316 2.604 22.446 3.995 35.288 3.709 34.229 7.913 73.025 13.287 93.314 2.96 11.174 5.944 20.174 8.83 28.877 6.62 19.964 12.337 37.205 12.337 66.215 0 25.876-10.197 50.398-28.715 69.049-18.641 18.777-43.307 29.118-69.452 29.118-54.129 0-98.166-44.037-98.166-98.167z" fill="#ae632c"/><g><path d="m423.28 167.097c0-43.692-17.392-85.312-48.971-117.192-31.876-32.181-73.889-49.903-118.309-49.905l-10.667 223.999 10.667 197.874c12.238 12.515 29.109 19.795 47.248 19.794.113 0 .23 0 .343-.001 17.188-.087 33.593-6.572 46.195-18.259 12.603-11.688 20.303-27.56 21.683-44.692l1.749-27.909 32.034-78.085.108-.274c18.571-47.927 18.12-87.965 17.92-105.35z" fill="#ffa73c"/><path d="m255.995 0c-44.412 0-86.427 17.723-118.305 49.905-31.579 31.88-48.971 73.5-48.971 117.192-.2 17.385-.65 57.423 17.92 105.35l32.143 78.358 1.73 27.642.019.267c1.38 17.132 9.08 33.004 21.683 44.692s29.008 18.172 46.196 18.259c.114.001.227.001.342.001 18.137-.001 35.011-7.28 47.248-19.794v-421.872c-.002 0-.003 0-.005 0z" fill="#fdc661"/></g><path d="m158.474 195.665h30v30h-30z" fill="#351a0a"/><g><path d="m323.526 195.665h30v30h-30z" fill="#281408"/></g><g><path d="m268.146 300.722h-12.146l-13.173 35.642 13.173 58.303 32.624-20.013c11.988-7.193 19.324-20.149 19.324-34.13 0-21.982-17.82-39.802-39.802-39.802z" fill="#281408"/><path d="m243.854 300.722c-21.982 0-39.802 17.82-39.802 39.802 0 13.981 7.335 26.937 19.324 34.13l32.624 20.013v-93.944h-12.146z" fill="#412816"/></g></g></svg>