<svg id="Capa_1" enable-background="new 0 0 512 512" height="512" viewBox="0 0 512 512" width="512" xmlns="http://www.w3.org/2000/svg"><g><path d="m434.081 70.107c-.015-.015-.015-.044-.029-.073-19.453-42.437-53.804-58.827-79.189-65.463-33.751-8.862-72.027-4.555-98.863 10.46-26.836-15.015-65.098-19.322-98.862-10.459-25.386 6.636-59.736 23.026-79.219 65.536-28.066 62.08-46.919 161.488-46.919 245.892 0 133.975 77.754 196 150 196 13.521 0 24.316-4.424 32.08-13.169 18.853-21.211 13.945-63.446 7.163-120.517-1.201-10.093-2.461-20.669-3.647-31.67l39.404-.98 39.609-.983c-1.245 11.719-2.593 22.969-3.853 33.662-6.782 57.056-11.675 99.276 7.163 120.487 7.765 8.746 18.56 13.17 32.081 13.17 72.246 0 150-62.025 150-196 0-84.404-18.853-183.812-46.919-245.893z" fill="#ffb64c"/><path d="m291.757 378.344c-6.782 57.056-11.675 99.276 7.163 120.487 7.764 8.745 18.559 13.169 32.08 13.169 72.246 0 150-62.025 150-196 0-84.404-18.853-183.813-46.919-245.893-.015-.015-.015-.044-.029-.073-19.453-42.437-53.804-58.827-79.189-65.463-33.751-8.862-72.027-4.555-98.863 10.46v330.634l39.609-.983c-1.245 11.718-2.592 22.968-3.852 33.662z" fill="#ff9100"/><path d="m256 361h-73.488c6.951 34.232 37.203 60 73.488 60s66.537-25.768 73.488-60z" fill="#e6455a"/><path d="m329.488 361h-73.488v60c36.284 0 66.537-25.768 73.488-60z" fill="#b32437"/><path d="m365.907 83.979c-13.55-15.234-33.033-23.979-53.423-23.979-22.939 0-43.388 10.869-56.484 27.715-13.096-16.846-33.545-27.715-56.484-27.715-20.391 0-39.873 8.745-53.423 23.979-13.55 15.249-19.951 35.596-17.563 55.854 20.01 170.127 22.324 190.727 22.5 191.679.248 32.828 27.099 59.488 59.97 59.488 17.549 0 33.823-7.676 45-20.317 11.177 12.641 27.451 20.317 45 20.317 33.091 0 60-26.909 59.897-58.242l22.573-192.924c2.388-20.259-4.013-40.605-17.563-55.855z" fill="#ffd396"/><path d="m360.897 332.758 22.573-192.924c2.388-20.259-4.014-40.605-17.563-55.854-13.55-15.235-33.033-23.98-53.423-23.98-22.939 0-43.388 10.869-56.484 27.715v282.968c11.177 12.641 27.451 20.317 45 20.317 33.091 0 60-26.909 59.897-58.242z" fill="#ffb64c"/><g><path d="m263.5 286.02h-7.5-7.5c-23.851-.353-37.5 5.74-37.5 29.98 0 24.814 20.186 45 45 45s45-20.186 45-45c0-24.397-13.652-30.126-37.5-29.98z" fill="#463f3f"/><path d="m301 316c0-24.397-13.652-30.126-37.5-29.98h-7.5v74.98c24.814 0 45-20.186 45-45z" fill="#352c2c"/></g><circle cx="196" cy="165" fill="#463f3f" r="15"/><circle cx="316" cy="165" fill="#352c2c" r="15"/></g></svg>