<svg id="Capa_1" enable-background="new 0 0 512 512" height="512" viewBox="0 0 512 512" width="512" xmlns="http://www.w3.org/2000/svg"><g><path d="m315.661 337h-59.661-59.661c-9.496 12.565-15.339 28.035-15.339 45 0 41.42 33.578 75 75 75s75-33.58 75-75c0-16.965-5.843-32.435-15.339-45z" fill="#e6455a"/><path d="m331 382c0-16.965-5.843-32.435-15.339-45h-59.661v120c41.422 0 75-33.58 75-75z" fill="#b32437"/><path d="m393.9 81.399-84.067 269.531 34.072 102.217c10.505 31.551 39.489 51.853 71.66 51.853 62.851 0 96.435-75.592 96.435-139.069 0-89.239-49.091-228.047-118.1-284.532z" fill="#352c2c"/><path d="m134.711 69.578c-82.837 50.244-134.711 206.47-134.711 296.353 0 63.477 33.584 139.069 96.435 139.069 32.172 0 61.156-20.302 71.66-51.853l40.532-121.611z" fill="#463f3f"/><path d="m421 142c0 19.35-4.94 38.03-14.68 55.53-5.38 9.67-10.55 21.79-15.38 35.1 0 0-.04 0-.11-.01-.1 0-.26 0-.48-.01-.54-.01-1.44-.02-2.66-.02-14.23-.08-72.96-.13-131.69-.13-67.47 0-134.94.06-134.94.17-4.83-13.31-10-25.43-15.38-35.1-9.74-17.5-14.68-36.18-14.68-55.53 0-74.44 74.02-135 165-135s165 60.56 165 135z" fill="#5b5555"/><path d="m421 142c0 19.35-4.94 38.03-14.68 55.53-5.38 9.67-10.55 21.79-15.38 35.1 0 0-.04-.01-.11-.01-.1 0-.26-.01-.48-.01-.54-.01-1.44-.02-2.66-.02-14.23-.08-72.96-.13-131.69-.13v-225.46c90.98 0 165 60.56 165 135z" fill="#463f3f"/><path d="m316 157c-24.65 0-46.328 12.05-60 30.41-13.672-18.36-35.35-30.41-60-30.41-41.422 0-75 33.578-75 75 0 .214.06.412.062.626 12.81 35.264 23.632 81.674 27.609 115.507 0 0 2.525 20.841 2.542 20.964 1.131 32.1 27.414 57.903 59.787 57.903 10.933 0 21.075-3.387 30-8.787l15-21.213 15 21.213c8.925 5.4 19.067 8.787 30 8.787 32.366 0 58.643-25.792 59.786-57.885.018-.128 2.543-20.982 2.543-20.982 3.972-33.79 14.786-80.206 27.609-115.507.002-.214.062-.412.062-.626 0-41.422-33.578-75-75-75z" fill="#cc7029"/><path d="m301 427c32.366 0 58.643-25.792 59.786-57.885.018-.128 2.543-20.982 2.543-20.982 3.972-33.79 14.786-80.206 27.609-115.507.002-.214.062-.412.062-.626 0-41.422-33.578-75-75-75-24.65 0-46.328 12.05-60 30.41v209.59l15 21.213c8.925 5.4 19.067 8.787 30 8.787z" fill="#994a0f"/><circle cx="196" cy="232" fill="#463f3f" r="15"/><circle cx="316" cy="232" fill="#352c2c" r="15"/><path d="m256 337c-8.291 0-15 6.709-15 15v66.213c5.541-3.353 10.717-7.31 15-12.235 4.283 4.926 9.459 8.882 15 12.235v-66.213c0-8.291-6.709-15-15-15z" fill="#463f3f"/><path d="m271 352c0-8.291-6.709-15-15-15v68.978c4.283 4.926 9.459 8.882 15 12.235z" fill="#352c2c"/><g><path d="m263.5 292h-7.5-7.5c-23.851-.353-37.5 5.76-37.5 30 0 24.814 20.186 45 45 45s45-20.186 45-45c0-24.397-13.652-30.146-37.5-30z" fill="#463f3f"/><path d="m301 322c0-24.397-13.652-30.146-37.5-30h-7.5v75c24.814 0 45-20.186 45-45z" fill="#352c2c"/></g></g></svg>