<svg id="Capa_1" enable-background="new 0 0 512 512" height="512" viewBox="0 0 512 512" width="512" xmlns="http://www.w3.org/2000/svg"><g><path d="m256 39.956c-162.056 0-256 126.742-256 346 0 6.753.264 13.301.776 19.658 3.452 42.27 36.918 66.687 74.271 66.427 44.427-.308 82.678-35.083 74.81-89.337l106.143.007 106.143.007c-7.881 54.313 30.496 89.326 75.381 89.326 37.203 0 70.278-24.498 73.7-66.431.513-6.357.776-12.905.776-19.658 0-219.257-93.944-345.999-256-345.999z" fill="#fff5f5"/><path d="m437.523 472.044c37.203 0 70.278-24.498 73.7-66.431.513-6.357.776-12.905.776-19.658 0-219.258-93.944-346-256-346v342.755l106.143.007c-7.88 54.314 30.497 89.327 75.381 89.327z" fill="#efe2dd"/><path d="m402.53 220.956-31.042-15h-87.988l-27.5-29.334-.624-.667-28.751 30h-86.113l-31.04 15c-12.374 46.311-21.786 78.153-17.314 129h163.842 163.841c4.479-50.909-5.215-83.727-17.311-128.999z" fill="#e1d3ce"/><path d="m402.53 220.956-31.042-15h-87.988l-27.5-29.334v173.333h163.841c4.479-50.909-5.215-83.727-17.311-128.999z" fill="#ccb5ad"/><path d="m256 340.956-116.279 38.554c24.097 31.729 68.657 51.445 116.279 51.445s92.183-19.717 116.279-51.445z" fill="#e6455a"/><path d="m372.279 379.51-116.279-38.554v90c47.622 0 92.183-19.717 116.279-51.446z" fill="#b32437"/><path d="m391 145.956c0-8.291-6.709-15-15-15s-15 6.709-15 15c0 15.872 1.622 30.02 3.867 43.438-19.414-4.99-33.867-22.488-33.867-43.438 0-8.291-6.709-15-15-15s-15 6.709-15 15c0 16.948 5.865 32.426 15.383 45h-.383c-24.814 0-45-20.186-45-45 0-8.291-6.709-15-15-15s-15 6.709-15 15c0 24.814-20.186 45-45 45h-.383c9.518-12.574 15.383-28.052 15.383-45 0-8.291-6.709-15-15-15s-15 6.709-15 15c0 20.951-14.453 38.448-33.867 43.438 2.245-13.418 3.867-27.567 3.867-43.438 0-8.291-6.709-15-15-15s-15 6.709-15 15c0 27.473-4.662 49.308-11.528 75h86.528c24.62 0 46.318-12.085 60-30.463 13.682 18.378 35.38 30.463 60 30.463h86.53c-6.881-25.747-11.53-47.489-11.53-75z" fill="#efe2dd"/><path d="m316 220.956h86.53c-6.881-25.746-11.53-47.488-11.53-75 0-8.291-6.709-15-15-15s-15 6.709-15 15c0 15.872 1.622 30.02 3.867 43.438-19.414-4.99-33.867-22.488-33.867-43.438 0-8.291-6.709-15-15-15s-15 6.709-15 15c0 16.948 5.865 32.426 15.383 45h-.383c-24.814 0-45-20.186-45-45 0-8.291-6.709-15-15-15v59.537c13.682 18.378 35.38 30.463 60 30.463z" fill="#e1d3ce"/><path d="m447.572 386.556c-15.937-67.599-100.072-120.577-191.572-120.599-.005 0-.009-.002-.015-.002-91.479 0-175.62 52.969-191.558 120.601-1.875 7.983 3.003 15.996 10.957 17.988l24.243 6.064c22.734 5.684 47.476-2.314 60.776-20.156 12.12-16.273 46.831-30.315 80.596-33.699l15-15.798 15 15.798c33.75 3.386 68.448 17.422 80.566 33.669 14.123 18.935 38.56 25.721 60.835 20.186l24.214-6.064c7.955-1.992 12.833-10.004 10.958-17.988z" fill="#efe2dd"/><path d="m351.566 390.423c14.123 18.935 38.56 25.721 60.835 20.186l24.214-6.064c7.954-1.992 12.832-10.005 10.957-17.988-15.937-67.6-100.072-120.578-191.572-120.6v74.998l15 15.798c33.75 3.387 68.448 17.423 80.566 33.67z" fill="#e1d3ce"/><path d="m256 280.956c-8.291 0-15 6.709-15 15v60.798c5.048-.505 10.074-.798 15-.798s9.952.293 15 .798v-60.798c0-8.291-6.709-15-15-15z" fill="#766e6e"/><path d="m271 295.956c0-8.291-6.709-15-15-15v75c4.926 0 9.952.293 15 .798z" fill="#5b5555"/><g><path d="m263.5 235.976h-7.5-7.5c-23.851-.353-37.5 5.74-37.5 29.98 0 24.814 20.186 45 45 45s45-20.186 45-45c0-24.397-13.652-30.127-37.5-29.98z" fill="#463f3f"/><path d="m301 265.956c0-24.397-13.652-30.126-37.5-29.98h-7.5v74.98c24.814 0 45-20.186 45-45z" fill="#352c2c"/></g></g></svg>