<svg id="Capa_1" enable-background="new 0 0 512 512" height="512" viewBox="0 0 512 512" width="512" xmlns="http://www.w3.org/2000/svg"><g><path d="m499.663 347.619c-2.886-8.703-5.87-17.703-8.83-28.877-5.374-20.289-9.578-59.085-13.287-93.314-1.391-12.842-2.705-24.971-3.995-35.288-5.882-47.053-39.502-81.649-72.082-104.64-7.331-12.789-16.423-24.756-27.159-35.595-31.878-32.182-73.893-49.905-118.315-49.905-44.412 0-86.427 17.723-118.305 49.905-10.736 10.839-19.828 22.806-27.159 35.595-32.58 22.991-66.201 57.587-72.082 104.64-1.29 10.316-2.604 22.446-3.995 35.288-3.709 34.229-7.913 73.025-13.287 93.314-2.96 11.174-5.944 20.174-8.83 28.877-6.62 19.964-12.337 37.204-12.337 66.214 0 25.876 10.197 50.398 28.715 69.049 18.641 18.777 43.306 29.118 69.452 29.118 45.144 0 83.263-30.634 94.675-72.204 5.057 1.206 10.275 1.844 15.568 1.871h.342c18.137 0 35.011-7.28 47.248-19.793 12.238 12.515 29.109 19.794 47.248 19.793h.343c5.293-.027 10.511-.665 15.567-1.871 11.413 41.57 49.531 72.204 94.675 72.204 26.145 0 50.811-10.341 69.452-29.118 18.518-18.65 28.715-43.172 28.715-69.049 0-29.01-5.717-46.25-12.337-66.214zm-401.496 134.381c-18.091 0-35.195-7.193-48.163-20.254-12.9-12.993-20.004-30.009-20.004-47.913 0-24.166 4.535-37.843 10.812-56.772 2.887-8.707 6.159-18.575 9.354-30.638 5.955-22.483 10.289-62.478 14.112-97.765 1.378-12.716 2.679-24.727 3.938-34.798 2.332-18.657 10.743-35.122 22.078-49.342-1.036 7.437-1.589 18.826-1.589 26.429l-.019.012c-.469 17.38-.618 53.561 17.952 101.488l32.143 78.358 1.73 27.642.019.267c1.38 17.132 9.08 33.004 21.683 44.692.977.906 1.985 1.77 3.007 2.613-5.764 31.791-33.627 55.981-67.053 55.981zm140.479-122.323c-4.668-2.801-7.568-7.923-7.568-13.367 0-8.595 6.992-15.588 15.588-15.588h18.668c8.596 0 15.588 6.993 15.588 15.588 0 5.444-2.899 10.565-7.567 13.366l-17.355 10.413zm104.939-15.682-2.03 32.435c-1.672 19.995-18.037 35.134-38.115 35.235-.064 0-.125 0-.188 0-12.471 0-23.832-6.307-30.452-16.671l15.99-9.594c13.651-8.191 22.132-23.17 22.132-39.091 0-25.137-20.45-45.588-45.588-45.588h-18.668c-25.138 0-45.588 20.451-45.588 45.588 0 15.92 8.48 30.899 22.133 39.091l15.989 9.594c-6.62 10.366-17.981 16.671-30.452 16.671-.061 0-.125 0-.186 0-20.079-.101-36.444-15.241-38.116-35.235l-2.03-32.435-33.855-82.523c-16.424-42.46-16.053-74.677-15.874-90.167l.021-.014c0-35.215 14.697-74.429 40.298-100.274 26.199-26.45 60.644-41.017 96.999-41.017 36.345 0 70.79 14.567 96.991 41.017 25.601 25.845 40.284 60.865 40.284 96.08l-.003.001c.179 15.49.587 51.913-15.837 94.374zm118.411 117.751c-12.968 13.061-30.072 20.254-48.163 20.254-33.426 0-61.289-24.19-67.053-55.98 1.022-.843 2.029-1.707 3.007-2.613 12.603-11.688 20.303-27.56 21.683-44.692l1.749-27.909 32.034-78.085.108-.274c18.57-47.927 18.124-87.964 17.924-105.349l-.004-.001c0-7.604-.539-15.142-1.575-22.579 11.335 14.22 19.746 30.685 22.078 49.342 1.259 10.072 2.56 22.083 3.938 34.798 3.823 35.287 8.157 75.281 14.112 97.765 3.195 12.063 6.468 21.931 9.354 30.638 6.277 18.93 10.812 32.606 10.812 56.772 0 17.904-7.104 34.92-20.004 47.913z" fill="white"/><path d="m173.474 195.665h-15v30h30v-30z" fill="white"/><path d="m353.526 225.665v-30h-15-15v30z" fill="white"/></g></svg>
