<svg height="496pt" viewBox="0 -20 496 496" width="496pt" xmlns="http://www.w3.org/2000/svg"><path d="m67.039062 308.960938c3.039063 3.039062 4.960938 7.359374 4.960938 12 0 4.480468-1.761719 8.800781-4.960938 12l-11.039062 11.039062v64l11.039062 11.039062c3.199219 3.199219 4.960938 7.519532 4.960938 12 0 4.640626-1.921875 8.960938-4.960938 12-3.039062 3.039063-7.359374 4.960938-12 4.960938-4.480468 0-8.800781-1.761719-12-4.960938l-3.039062-3.039062-3.039062 3.039062c-3.199219 3.199219-7.519532 4.960938-12 4.960938-4.640626 0-8.960938-1.921875-12-4.960938-3.039063-3.039062-4.960938-7.359374-4.960938-12 0-4.480468 1.761719-8.800781 4.960938-12l11.039062-11.039062v-64l-11.039062-11.039062c-3.199219-3.199219-4.960938-7.519532-4.960938-12 0-4.640626 1.921875-8.960938 4.960938-12 3.039062-3.039063 7.359374-4.960938 12-4.960938 4.480468 0 8.800781 1.761719 12 4.960938l3.039062 3.039062 3.039062-3.039062c3.199219-3.199219 7.519532-4.960938 12-4.960938 4.640626 0 8.960938 1.921875 12 4.960938zm0 0" fill="#e6e9ed"/><path d="m450.160156 122.160156c24.238282 24.238282 37.839844 57.121094 37.839844 91.359375 0 17.441407-3.519531 34.800781-10.480469 50.878907l-12.640625 29.601562c-9.199218-11.121094-20.878906-20.398438-34.480468-26.800781l1.601562-3.199219 9.679688-24.238281c4.160156-10.402344 6.320312-21.523438 6.320312-32.800781 0-20-6.800781-39.519532-19.359375-55.121094l-8.960937-11.199219c-2.398438-3.039063-3.679688-6.71875-3.679688-10.5625v-1.117187c0-9.359376 7.601562-16.960938 16.960938-16.960938 4.480468 0 8.800781 1.761719 12 4.960938zm0 0" fill="#cf9e76"/><path d="m116 411.199219 28-11.199219v-3.679688c0-13.441406-2.398438-26.800781-7.121094-39.359374-9.839844-26.082032-15.359375-53.519532-16.640625-81.28125h.082031c7.199219 18.480468 19.039063 35.121093 34.71875 48.160156 1.601563 1.28125 3.199219 2.640625 4.800782 3.839844 2.398437 9.921874 5.441406 19.679687 9.039062 29.28125 4.722656 12.558593 7.121094 25.917968 7.121094 39.359374v3.679688l-28 11.199219c-7.28125 2.878906-12 9.921875-12 17.679687 0 5.28125 2.160156 10.082032 5.601562 13.519532 3.4375 3.441406 8.238282 5.601562 13.519532 5.601562h-32c-5.28125 0-10.082032-2.160156-13.519532-5.601562-3.441406-3.4375-5.601562-8.238282-5.601562-13.519532 0-7.757812 4.71875-14.800781 12-17.679687zm0 0" fill="#cf9e76"/><path d="m159.839844 327.679688c-1.601563-1.199219-3.199219-2.558594-4.800782-3.839844-15.679687-13.039063-27.519531-29.679688-34.71875-48.160156-5.441406-13.757813-8.320312-28.558594-8.320312-43.679688l.800781-3.839844c4.480469 2.398438 9.679688 3.839844 15.199219 3.839844h64c8.800781 0 16.800781-3.601562 22.640625-9.359375 5.757813-5.839844 9.359375-13.839844 9.359375-22.640625 16.558594 0 30.800781-10.078125 36.878906-24.398438l3.121094.398438 5.28125 4.71875c21.917969 19.441406 46 36.320312 71.597656 50.242188 25.679688 13.917968 52.882813 24.878906 81.199219 32.71875 2.882813 1.039062 5.601563 2.242187 8.320313 3.519531 13.601562 6.402343 25.28125 15.679687 34.480468 26.800781 1.761719 2.160156 3.441406 4.398438 5.042969 6.640625 11.519531 16.558594 18.078125 36.480469 18.078125 57.597656 0 13.363281-2.640625 26.480469-7.679688 38.5625-5.039062 12.160157-12.398437 23.277344-21.839843 32.71875-11.839844 11.839844-27.921875 18.480469-44.640625 18.480469h-133.839844c-6.640625 0-12.640625-2.71875-16.960938-7.039062-4.320312-4.320313-7.039062-10.320313-7.039062-16.960938 0-13.28125 10.71875-24 24-24h32v-23.441406c0-2.878906.078125-5.679688.320312-8.558594h-35.359374c-18.082032 0-35.839844-2.558594-52.960938-7.519531v71.519531c0 8.800781-7.199219 16-16 16h-52.878906c-5.28125 0-10.082032-2.160156-13.519532-5.601562-3.441406-3.4375-5.601562-8.238282-5.601562-13.519532 0-7.757812 4.71875-14.800781 12-17.679687l28-11.199219v-3.679688c0-13.441406-2.398438-26.800781-7.121094-39.359374-3.597656-9.601563-6.640625-19.359376-9.039062-29.28125zm0 0" fill="#ecc19c"/><path d="m296 100.480469c0 7.597656-3.039062 14.480469-8.078125 19.441406-4.960937 5.039063-11.84375 8.078125-19.441406 8.078125h-4.480469c0-28.71875-11.679688-54.71875-30.480469-73.519531-10.960937-10.960938-24.320312-19.519531-39.28125-24.640625l7.601563-7.679688c9.039062-9.039062 21.359375-14.160156 34.160156-14.160156 8.640625 0 16.960938 2.320312 24.160156 6.558594 7.28125 4.160156 13.441406 10.242187 17.761719 17.761718 11.839844 20.800782 18.078125 44.238282 18.078125 68.160157zm0 0" fill="#cf9e76"/><path d="m118.160156 22.160156 7.679688 7.679688c-40.640625 14-69.839844 52.71875-69.839844 98.160156h-4.480469c-7.597656 0-14.480469-3.039062-19.441406-8.078125-5.039063-4.960937-8.078125-11.84375-8.078125-19.441406 0-23.921875 6.238281-47.359375 18.078125-68.160157 4.320313-7.519531 10.480469-13.601562 17.761719-17.761718 7.199218-4.238282 15.519531-6.558594 24.160156-6.558594 12.800781 0 25.121094 5.121094 34.160156 14.160156zm0 0" fill="#cf9e76"/><path d="m125.839844 29.839844c10.71875-3.839844 22.160156-5.839844 34.160156-5.839844s23.519531 2 34.238281 5.839844c14.960938 5.121094 28.320313 13.679687 39.28125 24.640625 18.800781 18.800781 30.480469 44.800781 30.480469 73.519531v32c0 5.519531-1.121094 10.800781-3.121094 15.601562-6.078125 14.320313-20.320312 24.398438-36.878906 24.398438 0-17.679688-7.199219-33.679688-18.71875-45.28125-11.28125-11.199219-26.640625-18.238281-43.679688-18.640625-.480468-.078125-1.042968-.078125-1.601562-.078125s-1.121094 0-1.601562.078125c-17.039063.402344-32.398438 7.441406-43.679688 18.640625-11.519531 11.601562-18.71875 27.601562-18.71875 45.28125-22.078125 0-40-17.921875-40-40v-32c0-45.441406 29.199219-84.160156 69.839844-98.160156zm0 0" fill="#ecc19c"/><path d="m161.601562 136.078125c17.039063.402344 32.398438 7.441406 43.679688 18.640625 11.519531 11.601562 18.71875 27.601562 18.71875 45.28125 0 8.800781-3.601562 16.800781-9.359375 22.640625-5.839844 5.757813-13.839844 9.359375-22.640625 9.359375h-64c-5.519531 0-10.71875-1.441406-15.199219-3.839844-10-5.441406-16.800781-16-16.800781-28.160156 0-17.679688 7.199219-33.679688 18.71875-45.28125 11.28125-11.199219 26.640625-18.238281 43.679688-18.640625zm0 0" fill="#b27946"/><path d="m161.601562 136.078125c8.078126.800781 14.398438 7.683594 14.398438 15.921875 0 8.800781-7.199219 16-16 16s-16-7.199219-16-16c0-8.238281 6.320312-15.121094 14.398438-15.921875.480468-.078125 1.042968-.078125 1.601562-.078125s1.121094 0 1.601562.078125zm0 0" fill="#838f9b"/><path d="m484.910156 267.511719c7.363282-17.175781 11.089844-35.34375 11.089844-54.015625 0-36.632813-14.265625-71.070313-40.167969-96.976563l-5.207031-5.207031c-4.714844-4.710938-10.984375-7.3125-17.65625-7.3125-13.769531 0-24.96875 11.199219-24.96875 24.96875v1.078125c0 5.648437 1.945312 11.183594 5.472656 15.601563l8.917969 11.160156c11.351563 14.183594 17.609375 32.007812 17.609375 50.183594 0 10.265624-1.9375 20.304687-5.753906 29.832031l-8.007813 20.023437c-.6875-.273437-1.351562-.582031-2.046875-.847656-55.128906-15.183594-106.863281-43.296875-149.605468-81.296875l-3.960938-3.519531c.871094-3.589844 1.375-7.328125 1.375-11.183594v-24.351562c17.910156-1.792969 32-16.777344 32-35.160157 0-25.273437-6.625-50.214843-19.160156-72.136719-9.992188-17.488281-28.703125-28.351562-48.847656-28.351562-15.023438 0-29.160157 5.847656-39.785157 16.480469l-4.230469 4.230469c-10.144531-3.03125-20.863281-4.710938-31.976562-4.710938s-21.832031 1.679688-31.976562 4.710938l-4.230469-4.230469c-10.625-10.632813-24.761719-16.480469-39.785157-16.480469-20.144531 0-38.855468 10.863281-48.847656 28.351562-12.535156 21.921876-19.160156 46.863282-19.160156 72.136719 0 18.375 14.089844 33.359375 32 35.160157v24.351562c0 24 17.71875 43.878906 40.742188 47.390625 1.898437 10.058594 7.585937 18.722656 15.503906 24.609375h-.246094c0 15.632812 2.984375 30.824219 8.351562 45.046875 1.351563 28.320313 7.046876 56.144531 17.007813 82.707031 4.199219 11.191406 6.425781 22.902344 6.625 34.832032l-22.960937 9.183593c-10.34375 4.140625-17.023438 14.015625-17.023438 25.152344 0 14.925781 12.152344 27.078125 27.078125 27.078125h84.921875c13.230469 0 24-10.769531 24-24v-61.257812c14.734375 3.433593 29.800781 5.257812 44.96875 5.257812h27.0625c0 .191406-.023438.375-.023438.566406v15.433594h-24c-17.648437 0-32 14.351562-32 32s14.351563 32 32 32h133.855469c19 0 36.855469-7.398438 50.289063-20.832031 20.535156-20.542969 31.847656-47.855469 31.847656-76.902344 0-24.007813-8.070312-46.753906-22.015625-65.242187zm-50.023437-120.703125-8.917969-11.160156c-1.273438-1.585938-1.96875-3.578126-1.96875-5.601563v-1.078125c0-4.945312 4.023438-8.96875 8.96875-8.96875 2.398438 0 4.648438.9375 6.34375 2.625l5.207031 5.207031c22.878907 22.878907 35.480469 53.304688 35.480469 85.664063 0 16.496094-3.296875 32.550781-9.792969 47.71875l-7.96875 18.59375c-6.429687-6.152344-13.613281-11.585938-21.511719-16.082032l8.378907-20.957031c4.574219-11.433593 6.894531-23.472656 6.894531-35.777343 0-21.800782-7.503906-43.167969-21.113281-60.183594zm-198.894531-130.808594c14.414062 0 27.808593 7.777344 34.960937 20.289062 11.152344 19.511719 17.046875 41.710938 17.046875 64.199219 0 9.695313-7.136719 17.703125-16.425781 19.199219-3.023438-40.863281-28.023438-75.617188-63.238281-92.566406 7.511718-7.128906 17.257812-11.121094 27.65625-11.121094zm-187.566407 103.6875c-9.289062-1.496094-16.425781-9.503906-16.425781-19.199219 0-22.488281 5.894531-44.6875 17.046875-64.199219 7.152344-12.511718 20.546875-20.289062 34.960937-20.289062 10.398438 0 20.144532 3.992188 27.65625 11.121094-35.214843 16.949218-60.214843 51.695312-63.238281 92.566406zm40.191407 71.367188c-14.082032-3.351563-24.617188-15.957032-24.617188-31.054688v-32c0-52.9375 43.0625-96 96-96s96 43.0625 96 96v32c0 15.097656-10.535156 27.703125-24.617188 31.054688-4.421874-35.488282-34.71875-63.054688-71.382812-63.054688s-66.960938 27.566406-71.382812 63.054688zm79.382812-39.054688c0 4.40625-3.59375 8-8 8s-8-3.59375-8-8 3.59375-8 8-8 8 3.59375 8 8zm-31.734375-2.648438c-.097656.878907-.265625 1.746094-.265625 2.648438 0 10.414062 6.710938 19.214844 16 22.527344v6.160156l-21.65625 21.65625 11.3125 11.3125 18.34375-18.34375 18.34375 18.34375 11.3125-11.3125-21.65625-21.65625v-6.160156c9.289062-3.3125 16-12.113282 16-22.527344 0-.902344-.167969-1.769531-.265625-2.648438 19.027344 8.953126 32.265625 28.257813 32.265625 50.648438 0 13.230469-10.769531 24-24 24h-64c-13.230469 0-24-10.769531-24-24 0-22.390625 13.238281-41.695312 32.265625-50.648438zm-3.5625 163.0625c5.144531 6.3125 10.816406 12.265626 17.199219 17.585938.9375.777344 1.898437 1.519531 2.839844 2.28125 2.402343 9.269531 5.242187 18.4375 8.625 27.472656 4.199218 11.191406 6.425781 22.902344 6.625 34.832032l-15.992188 6.398437v-4.632813c0-14.464843-2.574219-28.664062-7.65625-42.214843-5.097656-13.59375-8.917969-27.542969-11.640625-41.722657zm-20.703125 116.507813c0-4.554687 2.734375-8.59375 6.96875-10.289063l14.3125-5.730468c-3.335938 4.539062-5.28125 10.082031-5.28125 16.019531 0 3.957031.894531 7.6875 2.433594 11.078125h-7.355469c-6.101563 0-11.078125-4.976562-11.078125-11.078125zm340.832031-5.066406c-10.40625 10.410156-24.257812 16.144531-38.976562 16.144531h-133.855469c-8.824219 0-16-7.175781-16-16s7.175781-16 16-16h80v-16h-40v-15.433594c0-34.34375 13.375-66.628906 37.65625-90.910156l-11.3125-11.3125c-23.351562 23.351562-37.648438 53.320312-41.320312 85.65625h-28.0625c-15.191407 0-30.273438-2-44.96875-5.742188v-42.257812h-16v120c0 4.40625-3.59375 8-8 8h-52.921876c-6.09375 0-11.070312-4.976562-11.070312-11.078125 0-4.554687 2.734375-8.59375 6.96875-10.289063l33.03125-13.21875v-9.0625c0-14.464843-2.574219-28.664062-7.65625-42.214843-10.839844-28.921875-16.34375-59.25-16.34375-90.136719h-16c0 13.671875 1.070312 27.238281 3.097656 40.640625-15.746094-18.273437-25.128906-41.113281-26.699218-65.410156 2.464843.480469 5 .769531 7.601562.769531h64c19.519531 0 35.769531-14.078125 39.257812-32.609375 13.582032-2.070313 25.316407-9.804687 32.652344-20.765625l.050782.039062c44.566406 39.617188 98.503906 68.921876 155.34375 84.550782 36.304687 13.378906 60.695312 48.359375 60.695312 87.050781 0 24.773437-9.648438 48.070313-27.167969 65.589844zm0 0"/><path d="m216 96c0 4.417969-3.582031 8-8 8s-8-3.582031-8-8 3.582031-8 8-8 8 3.582031 8 8zm0 0"/><path d="m120 96c0 4.417969-3.582031 8-8 8s-8-3.582031-8-8 3.582031-8 8-8 8 3.582031 8 8zm0 0"/><path d="m72.6875 338.625c4.710938-4.714844 7.3125-10.984375 7.3125-17.65625 0-13.769531-11.199219-24.96875-24.96875-24.96875-5.496094 0-10.71875 1.761719-15.03125 5.023438-4.3125-3.261719-9.535156-5.023438-15.03125-5.023438-13.769531 0-24.96875 11.199219-24.96875 24.96875 0 6.671875 2.601562 12.941406 7.3125 17.65625l8.6875 8.6875v57.375l-8.6875 8.6875c-4.710938 4.714844-7.3125 10.984375-7.3125 17.65625 0 13.769531 11.199219 24.96875 24.96875 24.96875 5.496094 0 10.71875-1.761719 15.03125-5.023438 4.3125 3.261719 9.535156 5.023438 15.03125 5.023438 13.769531 0 24.96875-11.199219 24.96875-24.96875 0-6.671875-2.601562-12.941406-7.3125-17.65625l-8.6875-8.6875v-57.375zm-11.3125 86.0625c1.6875 1.695312 2.625 3.945312 2.625 6.34375 0 4.945312-4.023438 8.96875-8.96875 8.96875-2.398438 0-4.648438-.9375-6.34375-2.625l-8.6875-8.6875-8.6875 8.6875c-1.695312 1.6875-3.945312 2.625-6.34375 2.625-4.945312 0-8.96875-4.023438-8.96875-8.96875 0-2.398438.9375-4.648438 2.625-6.34375l13.375-13.375v-70.625l-13.375-13.375c-1.6875-1.695312-2.625-3.945312-2.625-6.34375 0-4.945312 4.023438-8.96875 8.96875-8.96875 2.398438 0 4.648438.9375 6.34375 2.625l8.6875 8.6875 8.6875-8.6875c1.695312-1.6875 3.945312-2.625 6.34375-2.625 4.945312 0 8.96875 4.023438 8.96875 8.96875 0 2.398438-.9375 4.648438-2.625 6.34375l-13.375 13.375v70.625zm0 0"/></svg>