<svg id="Capa_1" enable-background="new 0 0 512 512" height="512" viewBox="0 0 512 512" width="512" xmlns="http://www.w3.org/2000/svg"><g><path d="m63.505 31.993c-35.625 5.815-63.505 38.994-63.505 77.197 0 48.446 23.703 94.647 61.672 124.53l53.482-59.712 33.448-86.106c-9.614-38.609-46.403-62.058-85.097-55.909z" fill="#cc7029"/><path d="m512 109.19c0-38.203-27.88-71.382-63.52-77.197-38.412-6.107-75.41 17.064-85.082 55.909l26.986 95.573 59.945 50.223c37.984-29.899 61.671-76.082 61.671-124.508z" fill="#994a0f"/><path d="m443.676 61.612c-29.066-4.589-52.676 17.622-52.676 44.37 0 9.864-9.406 16.989-18.633 14.546l57.173 91.538c32.227-24.17 52.46-62.622 52.46-102.876 0-23.657-17.04-44.121-38.324-47.578z" fill="#ff9100"/><path d="m121 106.202c.119-26.992-23.743-49.266-52.676-44.59-21.269 3.457-38.324 23.921-38.324 47.578 0 40.254 20.233 78.706 52.431 102.861l57.261-91.245c-9.537 2.454-18.754-4.848-18.692-14.604z" fill="#ffb64c"/><path d="m363.399 87.902c-35.307-7.61-71.353-11.415-107.399-11.415s-72.092 3.805-107.399 11.415l-86.929 145.818c1.783 40.475 16.245 72.7 30.749 103.634 14.692 31.348 28.579 60.967 28.579 98.628l23.73 15c10.615 17.996 29.767 30 51.27 30 17.08 0 29.517-10.21 39.521-18.398 7.573-6.226 14.121-11.602 20.479-11.602s12.905 5.376 20.479 11.602c10.005 8.188 22.441 18.398 39.521 18.398 21.502 0 40.655-12.004 51.27-30l23.73-15c0-37.661 13.887-67.28 28.579-98.628 14.507-30.939 28.973-63.17 30.751-103.656z" fill="#e68945"/><path d="m316 480.982c21.502 0 40.655-12.004 51.27-30l23.73-15c0-37.661 13.887-67.28 28.579-98.628 14.507-30.939 28.973-63.17 30.751-103.656l-86.931-145.796c-35.307-7.61-71.353-11.415-107.399-11.415v374.495c6.357 0 12.905 5.376 20.479 11.602 10.004 8.188 22.441 18.398 39.521 18.398z" fill="#cc7029"/><path d="m315.661 255.982h-59.661-59.661c-9.496 12.565-15.339 28.035-15.339 45 0 41.42 33.578 75 75 75s75-33.58 75-75c0-16.965-5.843-32.435-15.339-45z" fill="#e6455a"/><path d="m331 300.982c0-16.965-5.843-32.435-15.339-45h-59.661v120c41.422 0 75-33.58 75-75z" fill="#b32437"/><circle cx="136" cy="225.982" fill="#463f3f" r="15"/><circle cx="376" cy="225.982" fill="#352c2c" r="15"/><g><path d="m191.827 227.901c-41.995 22.886-70.827 66.887-70.827 118.081v90c0 8.284 6.716 15 15 15 24.853 0 45-20.147 45-45v-30c0-41.422 33.578-75 75-75l-16.644-48.954z" fill="#766e6e"/><path d="m314.726 224.944-39.927 22.169-18.257 53.854c-.176.015-.366.015-.542.015 41.422 0 75 33.578 75 75v30c0 24.853 20.147 45 45 45 8.284 0 15-6.716 15-15v-90c0-53.408-31.274-99.144-76.274-121.038z" fill="#5b5555"/></g><path d="m256 210.982c-23.364 0-45.005 6.475-64.173 16.919l52.337 67.295c2.842 3.662 7.222 5.786 11.836 5.786.176 0 .366 0 .542-.015 4.819-.176 9.258-2.651 11.938-6.665l46.245-69.359c-17.819-8.669-37.574-13.961-58.725-13.961z" fill="#463f3f"/><path d="m268.48 294.302 46.245-69.359c-17.82-8.67-37.575-13.962-58.726-13.962v90c.176 0 .366 0 .542-.015 4.82-.174 9.259-2.65 11.939-6.664z" fill="#352c2c"/></g></svg>