<svg id="Capa_1" enable-background="new 0 0 510 510" height="512" viewBox="0 0 510 510" width="512" xmlns="http://www.w3.org/2000/svg"><g><path d="m414.604 254.954h-158.604-158.604c-4.072 14.328-6.396 29.385-6.396 45 0 90.981 74.019 165 165 165s165-74.019 165-165c0-15.615-2.324-30.672-6.396-45z" fill="#a34f3e"/><path d="m421 299.954c0-15.615-2.324-30.672-6.396-45h-158.604v210c90.981 0 165-74.019 165-165z" fill="#873f2e"/><path d="m459.423 263.684c-13.077-27.621-7.896-60.828-7.896-72.949-.791-54.492-42.656-103.33-97.397-113.599-35.083-6.592-70.898 2.373-98.13 24.155-27.217-21.782-62.886-30.776-98.13-24.155-57.202 10.723-99.565 64.043-96.431 121.553 1.816 27.759-1.011 48.413-8.862 65.01-13.652 28.799-20.845 59.927-21.387 93.252 1.289 42.334 35.361 76.582 77.578 77.959 22.104.557 42.671-15.615 46.963-37.134 8.335-38.763 4.794-28.764 10.269-46.298l15-66.524 15 21.995c16.873-13.885 35.885-21.887 60-21.896 21.841-.005 41.517 6.295 60 22.218l15-22.317 15 66.583c4.012 11.609 4.023 16.349 10.474 47.236 4.16 20.874 22.573 36.094 43.799 36.182h.293c42.078 0 78.77-32.556 80.259-78.457-.499-32.653-7.691-63.868-21.402-92.814z" fill="#c86e59"/><path d="m316 307.271 15-22.317 15 66.583c4.012 11.609 4.023 16.349 10.474 47.236 4.16 20.874 22.573 36.094 43.799 36.182h.293c42.078 0 78.77-32.556 80.259-78.457-.498-32.651-7.69-63.867-21.401-92.813-13.077-27.621-7.896-60.828-7.896-72.949-.791-54.492-42.656-103.33-97.397-113.599-35.083-6.592-70.898 2.373-98.13 24.155v183.761c21.84-.006 41.515 6.294 59.999 22.218z" fill="#a34f3e"/><g><circle cx="166" cy="179.954" fill="#463f3f" r="15"/></g><g><circle cx="346" cy="179.954" fill="#352c2c" r="15"/></g><path d="m331 254.954c-8.291 0-15 6.709-15 15v37.317c13.356 11.503 23.937 26.733 30 44.266v-81.583c0-8.291-6.709-15-15-15z" fill="#efe2dd"/><path d="m181 254.954c-8.291 0-15 6.709-15 15v81.524c5.488-17.562 15.778-32.836 30-44.529v-36.995c0-8.291-6.709-15-15-15z" fill="#fff5f5"/><g><g><path d="m263.5 209.974h-7.5-7.5c-23.851-.353-37.5 5.741-37.5 29.98 0 24.814 20.186 45 45 45s45-20.186 45-45c0-24.397-13.652-30.127-37.5-29.98z" fill="#463f3f"/></g><g><path d="m301 239.954c0-24.397-13.652-30.126-37.5-29.98h-7.5v74.98c24.814 0 45-20.186 45-45z" fill="#352c2c"/></g></g><g><g><path d="m426.51 214.729c-20.083-17.52-40.723-42.539-53.862-65.317-24.873-43.081-20.024-75.029 14.458-94.951 34.482-19.863 64.6-8.145 89.473 34.951 22.793 39.507 52.782 125.991 16.527 146.924-21.017 12.076-48.405-5.735-66.596-21.607z" fill="#873f2e"/></g></g><g><g><path d="m16.895 236.336c-36.255-20.933-6.266-107.417 16.527-146.924 24.873-43.125 54.961-54.888 89.473-34.951 34.482 19.922 39.331 51.87 14.458 94.951-13.14 22.778-33.779 47.798-53.862 65.317-18.198 15.877-45.583 33.681-66.596 21.607z" fill="#a34f3e"/></g></g></g></svg>