<svg id="Capa_1" enable-background="new 0 0 511.992 511.992" height="512" viewBox="0 0 511.992 511.992" width="512" xmlns="http://www.w3.org/2000/svg"><g><path d="m255.996 45.996c-140.889 0-225 84.111-225 225 0 131.221 73.594 195 225 195s225-63.779 225-195c0-140.888-84.111-225-225-225z" fill="#e68945"/><path d="m480.996 270.996c0-140.889-84.111-225-225-225v420c151.406 0 225-63.779 225-195z" fill="#cc7029"/><path d="m315.657 285.996h-59.661-59.661c-9.496 12.565-15.339 28.035-15.339 45 0 41.42 33.578 75 75 75s75-33.58 75-75c0-16.965-5.843-32.435-15.339-45z" fill="#e6455a"/><path d="m330.996 330.996c0-16.965-5.843-32.435-15.339-45h-59.661v120c41.422 0 75-33.58 75-75z" fill="#b32437"/><g><path d="m162.803 181.128-53.188-19.351c-7.793-2.827-11.807-11.44-8.965-19.219 2.827-7.793 11.484-11.777 19.219-8.965l53.188 19.351c7.867 2.805 16.388-1.185 19.233-8.965 2.827-7.793 11.484-11.777 19.219-8.965 7.793 2.827 11.807 11.44 8.965 19.219-8.57 23.515-34.441 35.361-57.671 26.895z" fill="#cc7029"/></g><g><path d="m291.519 154.234c-2.842-7.778 1.172-16.392 8.965-19.219 7.734-2.827 16.406 1.172 19.219 8.965 2.768 7.568 11.198 11.881 19.233 8.965l53.188-19.351c7.734-2.827 16.406 1.172 19.219 8.965 2.842 7.778-1.172 16.392-8.965 19.219l-53.188 19.351c-23.237 8.467-49.103-3.387-57.671-26.895z" fill="#994a0f"/></g><g><circle cx="165.996" cy="210.996" fill="#463f3f" r="15"/></g><g><circle cx="345.996" cy="210.996" fill="#352c2c" r="15"/></g><g><path d="m255.996 135.996c-8.291 0-15 6.709-15 15v30c0 8.291 6.709 15 15 15s15-6.709 15-15v-30c0-8.291-6.709-15-15-15z" fill="#cc7029"/><path d="m270.996 180.996v-30c0-8.291-6.709-15-15-15v60c8.291 0 15-6.709 15-15z" fill="#994a0f"/></g><g><path d="m24.243 200.479-21.522-56.382c-8.496-23.306 3.574-49.189 26.895-57.671l106.923-38.555c11.631-4.219 24.536-1.055 32.856 8.042 8.35 9.111 10.371 22.236 5.142 33.428-26.235 56.25-72.773 98.906-131.074 120.103-7.676 2.803-16.361-1.089-19.22-8.965z" fill="#5b5555"/></g><g><path d="m468.53 209.443c-58.301-21.196-104.839-63.853-131.074-120.103-5.229-11.191-3.208-24.316 5.142-33.428 8.35-9.097 21.196-12.261 32.856-8.042l106.923 38.555c23.32 8.481 35.391 34.365 26.895 57.671l-21.522 56.382c-2.856 7.867-11.533 11.773-19.22 8.965z" fill="#463f3f"/></g><g><path d="m379.215 309.371-55.192-55.192-51.832 17.1-16.195 44.717 57.757 55.179c20.085 20.085 52.449 17.223 68.952-1.575 13.702-15.609 15.114-41.625-3.49-60.229z" fill="#463f3f"/><path d="m187.969 254.18-55.192 55.192c-18.604 18.604-17.192 44.619-3.49 60.229 16.503 18.798 48.867 21.66 68.952 1.575l57.757-55.179-17.408-45.819z" fill="#5b5555"/></g><path d="m309.024 239.18c-14.583-14.583-33.805-21.874-53.027-21.874s-38.445 7.291-53.027 21.874l-15 15 57.422 57.422c2.93 2.93 6.768 4.395 10.605 4.395 3.838 0 7.676-1.465 10.605-4.395l57.422-57.422z" fill="#463f3f"/><path d="m324.024 254.18-15-15c-14.583-14.583-33.805-21.874-53.027-21.874v98.69c3.838 0 7.676-1.465 10.605-4.395z" fill="#352c2c"/></g></svg>