<svg id="Capa_1" enable-background="new 0 0 512 512" height="512" viewBox="0 0 512 512" width="512" xmlns="http://www.w3.org/2000/svg"><g><path d="m453.573 97.958-62.573 158.042c0 4.651 29.542 9.194 28.727 13.612 51.362-6.808 92.273-50.422 92.273-103.612v-90z" fill="#b32437"/><path d="m56.657 96.405-56.657-20.405v90c0 53.19 40.911 96.804 92.273 103.612l28.727-13.612z" fill="#e6455a"/><path d="m315.661 331h-59.661-59.661c-9.496 12.565-15.339 28.035-15.339 45 0 41.42 33.578 75 75 75s75-33.58 75-75c0-16.965-5.843-32.435-15.339-45z" fill="#e6455a"/><path d="m331 376c0-16.965-5.843-32.435-15.339-45h-59.661v120c41.422 0 75-33.58 75-75z" fill="#b32437"/><path d="m497 61c-59.341 0-114.818 31.978-144.042 82.705-27.993-14.722-62.476-22.083-96.958-22.083s-68.965 7.361-96.958 22.083c-29.224-50.727-84.701-82.705-144.042-82.705-8.291 0-15 6.709-15 15 54.846 39.474 91 113.256 91 180 0 4.651.458 9.194 1.273 13.612 5.87 31.868 31.924 56.763 64.382 60.802-2.651 7.178-4.688 15.19-5.391 23.892-2.446 30.776 16.523 58.096 45.103 64.951 4.834 1.157 9.683 1.714 14.443 1.714 17.618 0 33.88-7.961 45.19-20.947 11.31 12.986 27.572 20.947 45.19 20.947 4.761 0 9.609-.557 14.443-1.714 28.579-6.855 47.549-34.175 45.103-64.966-.703-8.687-2.739-16.699-5.391-23.877 32.457-4.039 58.511-28.934 64.382-60.802 2.408-13.059-1.102-126.409 92.273-193.612 0-8.291-6.709-15-15-15z" fill="#ffb64c"/><path d="m315.634 419.257c28.579-6.855 47.549-34.175 45.103-64.966-.703-8.687-2.739-16.699-5.391-23.877 32.457-4.039 58.511-28.934 64.382-60.802 2.407-13.059-1.103-126.409 92.272-193.612 0-8.291-6.709-15-15-15-59.341 0-114.818 31.978-144.042 82.705-27.993-14.722-62.476-22.083-96.958-22.083v278.401c11.31 12.986 27.572 20.947 45.19 20.947 4.761.001 9.61-.556 14.444-1.713z" fill="#ff9100"/><circle cx="166" cy="256" fill="#463f3f" r="15"/><circle cx="346" cy="256" fill="#463f3f" r="15"/><g><path d="m263.5 316.02h-7.5-7.5c-23.851-.353-37.5 5.74-37.5 29.98 0 24.814 20.186 45 45 45s45-20.186 45-45c0-24.397-13.652-30.126-37.5-29.98z" fill="#463f3f"/><path d="m301 346c0-24.397-13.652-30.126-37.5-29.98h-7.5v74.98c24.814 0 45-20.186 45-45z" fill="#352c2c"/></g></g></svg>