<svg id="Capa_1" enable-background="new 0 0 512 512" height="512" viewBox="0 0 512 512" width="512" xmlns="http://www.w3.org/2000/svg"><g><g><path d="m390.81 90.343-.615 97.529 12.158 133.77c2.223 24.373 22.619 41.279 45.601 41.279 14.473 0 28.935-7.061 37.123-19.541 17.87-27.246 26.923-56.645 26.923-87.378 0-67.939-45.927-129.873-121.19-165.659z" fill="#994a0f"/></g><g><path d="m121.19 90.343c-75.263 35.786-121.19 97.72-121.19 165.659 0 30.732 10.053 60.132 27.924 87.378 8.188 12.48 21.65 19.541 36.123 19.541 22.949 0 43.378-16.897 45.601-41.279l11.763-131.47z" fill="#cc7029"/></g><path d="m256 31.002c-90.981 0-165 60.557-165 135 0 37.163 7.896 66.035 15.527 93.955 7.441 27.217 14.473 52.91 14.473 86.045v30h135 135v-30c0-33.135 7.031-58.828 14.473-86.045 7.632-27.92 15.527-56.792 15.527-93.955 0-74.443-74.019-135-165-135z" fill="#e68945"/><path d="m391 346.002c0-33.135 7.031-58.828 14.473-86.045 7.632-27.92 15.527-56.792 15.527-93.955 0-74.443-74.019-135-165-135v345h135z" fill="#cc7029"/><path d="m256 289.078h-67.515l15.029 145.957c15.879-9.185 34.182-13.777 52.485-13.777s36.606 4.592 52.485 13.777l15.029-145.957z" fill="#463f3f"/><path d="m323.515 289.078h-67.515v132.18c18.303 0 36.606 4.592 52.485 13.777z" fill="#352c2c"/><g><circle cx="166" cy="196.002" fill="#463f3f" r="15"/></g><g><circle cx="346" cy="196.002" fill="#352c2c" r="15"/></g><g><path d="m226 211.002c-8.291 0-15-6.709-15-15v-30c0-8.276-6.724-15-15-15-8.291 0-15-6.709-15-15s6.709-15 15-15c24.814 0 45 20.186 45 45v30c0 8.291-6.709 15-15 15z" fill="#cc7029"/></g><g><path d="m286 211.002c-8.291 0-15-6.709-15-15v-30c0-24.814 20.186-45 45-45 8.291 0 15 6.709 15 15s-6.709 15-15 15c-8.276 0-15 6.724-15 15v30c0 8.291-6.709 15-15 15z" fill="#994a0f"/></g><g><g><path d="m214.757 248.101c-54.248 17.511-93.757 67.824-93.757 127.901v58.109c0 23.992 18.168 46.481 43.854 46.882 25.415.395 46.146-23.273 46.146-48.691v-37.786c0-26.744 9.21-48.935 25.605-65.33l8.789-8.789c2.93-2.93 6.768-4.395 10.605-4.395l-12.858-39.189z" fill="#766e6e"/></g><g><path d="m297.243 248.101-27.959 28.167-13.284 39.734c3.838 0 7.676 1.465 10.605 4.395l8.789 8.789c16.396 16.395 25.606 38.629 25.606 61.816v41.25c0 25.419 20.729 49.136 46.146 48.741 25.723-.401 43.854-22.932 43.854-46.882v-58.109c0-60.077-39.509-110.39-93.757-127.901z" fill="#5b5555"/></g><g><path d="m256 241.002c-14.482 0-28.165 2.878-41.243 7.099l28.513 60.826c2.725 4.395 7.544 7.075 12.729 7.075s10.005-2.681 12.729-7.075l28.513-60.826c-13.076-4.22-26.759-7.099-41.241-7.099z" fill="#463f3f"/></g><g><path d="m297.243 248.101c-13.077-4.221-26.761-7.099-41.243-7.099v75c5.186 0 10.005-2.681 12.729-7.075z" fill="#352c2c"/></g></g></g></svg>