<svg id="Capa_1" enable-background="new 0 0 512.005 512.005" height="512" viewBox="0 0 512.005 512.005" width="512" xmlns="http://www.w3.org/2000/svg"><g><path d="m311.628 377.879-55.626.02-60.624.02-23.707 30.007c18.984 26.083 49.62 43.079 84.331 43.079 34.695 0 65.204-17.075 84.19-43.136z" fill="#cc7029"/><path d="m340.193 407.87-28.564-29.991-55.626.02v73.107c34.695 0 65.204-17.075 84.19-43.136z" fill="#994a0f"/><g><path d="m86.681 194.365c-101.54-70.36-54.947-181.088-54.917-184.091 1.304-3.926 4.175-7.134 7.925-8.877 3.75-1.729 8.057-1.846 11.88-.322l112.28 45.912c38.936 15.586 57.217 58.74 41.631 98.276-1.465 3.677-4.307 6.636-7.925 8.232l-96.299 42.275c-4.903 2.119-10.349 1.509-14.575-1.405zm104.839-54.609h.293z" fill="#cc7029"/><path d="m97.107 164.829c-27.465-21.275-42.801-48.601-45.573-81.303-1.641-19.354 1.307-36.612 4.217-48.331l96.95 39.642c21.975 8.797 32.773 31.277 26.71 53.86z" fill="#ffb64c"/></g><g><path d="m391.486 203.169-84.697-69.141c-3.091-2.534-5.054-6.196-5.435-10.181-3.164-32.974 16.084-64.57 46.802-76.86l112.28-45.912c3.823-1.538 8.145-1.421 11.88.322 3.75 1.743 6.621 4.951 7.925 8.877-.089 3.002 49.651 131.368-72.364 194.594-5.26 2.737-11.729 2.115-16.391-1.699z" fill="#994a0f"/><path d="m331.044 115.102c.646-17.583 11.66-33.622 28.256-40.262l96.524-39.468c4.383 19.509 5.484 38.031 3.267 55.22-4.636 35.948-23.148 63.157-56.496 82.918z" fill="#ff9100"/></g><path d="m256.003 61.006c-90.981 0-165 74.019-165 165 0 41.188 15.185 78.882 40.237 107.814l17.99 86.966c6.683-4.843 14.247-9.12 22.441-12.859 19.926-9.097 43.885-14.564 69.331-16.192l15-30.729 15 30.729c25.389 1.626 49.288 7.077 69.19 16.135 8.232 3.746 15.839 8.027 22.553 12.887l25.631-96.405c20.484-27.477 32.626-61.514 32.626-98.346.001-90.982-74.018-165-164.999-165z" fill="#e68945"/><path d="m340.193 407.87c8.232 3.746 15.839 8.027 22.553 12.887l25.631-96.405c20.484-27.477 32.626-61.514 32.626-98.346 0-90.981-74.019-165-165-165v300l15 30.729c25.389 1.625 49.288 7.076 69.19 16.135z" fill="#cc7029"/><circle cx="166.003" cy="226.006" fill="#463f3f" r="15"/><circle cx="346.003" cy="226.006" fill="#352c2c" r="15"/><path d="m508.663 161.714c-40.444-49.995-108.007-68.262-170.526-46.611-36.621 12.686-65.654 39.888-82.134 74.355-16.465-34.468-45.513-61.67-82.134-74.355-62.549-21.65-130.082-3.354-170.526 46.611-3.12 3.853-4.131 9.009-2.71 13.755 5.479 18.223 20.57 32.344 38.676 37.778 18.735 5.596 38.848 1.362 53.994-11.323 16.157-13.491 36.636-20.918 57.7-20.918 44.561 0 82.866 33.208 89.106 77.256h15.894 15.894c6.24-44.048 44.546-77.256 89.106-77.256 21.064 0 41.543 7.427 57.686 20.918 15.176 12.656 35.317 16.89 54.009 11.323 18.105-5.435 33.197-19.556 38.676-37.778 1.42-4.747.409-9.903-2.711-13.755z" fill="#ffe6b3"/><path d="m361.003 181.006c21.064 0 41.543 7.427 57.686 20.918 15.176 12.656 35.317 16.89 54.009 11.323 18.105-5.435 33.197-19.556 38.676-37.778 1.421-4.746.41-9.902-2.71-13.755-40.444-49.995-108.007-68.262-170.526-46.611-36.621 12.686-65.654 39.888-82.134 74.355v68.804h15.894c6.239-44.048 44.544-77.256 89.105-77.256z" fill="#ffca80"/><path d="m278.034 252.915-22.031.081-21.929.081-25.371 15.996 32.3 51.259v71.404c4.975-.319 9.921-.729 15-.729s10.025.41 15 .729v-71.406l32.402-51.42z" fill="#463f3f"/><path d="m271.003 320.33 32.402-51.42-25.371-15.996-22.031.081v138.01c5.079 0 10.025.41 15 .729z" fill="#352c2c"/><path d="m256.003 241.006c-107.52 0-195 74.019-195 165 0 36.533 13.784 72.133 39.858 101.049 5.186 5.771 14.971 5.815 21.196 1.143 31.04-23.32 43.945-64.56 32.9-103.495-2.622-9.287-3.955-18.94-3.955-28.696 0-57.475 46.078-104.709 105-104.872 52.972-.152 92.95 37.368 102.437 81.259 3.779 17.432 3.398 34.673-1.099 51.24-10.854 39.873 1.978 81.552 33.618 105.326 2.695 2.051 5.874 3.047 9.053 3.047 4.102 0 8.188-1.685 11.133-4.951 26.074-28.916 39.858-64.516 39.858-101.049.001-90.983-87.48-165.001-194.999-165.001z" fill="#fff7cc"/><path d="m358.439 352.392c3.779 17.432 3.398 34.673-1.099 51.24-10.854 39.873 1.978 81.552 33.618 105.326 2.695 2.051 5.874 3.047 9.053 3.047 4.102 0 8.188-1.685 11.133-4.951 26.074-28.916 39.858-64.516 39.858-101.049 0-90.981-87.48-165-195-165v30.128c52.973-.152 92.951 37.369 102.437 81.259z" fill="#ffe6b3"/></g></svg>